<svg width="55" height="52" viewBox="0 0 55 52" fill="none" xmlns="http://www.w3.org/2000/svg">
<path d="M54.6887 14.0514C54.5302 13.8329 54.3201 13.6546 54.0758 13.5315C53.8316 13.4083 53.5605 13.344 53.2853 13.3438H16.6246L13.8496 4.05328C12.7613 0.394931 10.1753 0 9.11469 0H1.71536C0.766966 0 0 0.745421 0 1.66525C0 2.58507 0.76783 3.33044 1.71531 3.33044H9.11377C9.34783 3.33044 10.0621 3.33044 10.5493 4.96467L20.0958 39.0251C20.3031 39.7437 20.9776 40.24 21.7471 40.24H45.0653C45.7892 40.24 46.4351 39.7998 46.6796 39.1382L54.8986 15.5724C55.0878 15.0617 55.0092 14.4933 54.6887 14.0514H54.6887ZM43.8582 36.9105H23.0491L17.5888 16.6751H50.8464L43.8582 36.9105ZM40.4561 43.6151C38.0706 43.6151 36.1376 45.4916 36.1376 47.8075C36.1376 50.1235 38.0706 52 40.4561 52C42.8417 52 44.7746 50.1235 44.7746 47.8075C44.7746 45.4916 42.8417 43.6151 40.4561 43.6151ZM24.9095 43.6151C22.524 43.6151 20.591 45.4916 20.591 47.8075C20.591 50.1235 22.524 52 24.9095 52C27.2951 52 29.228 50.1235 29.228 47.8075C29.228 45.4916 27.2951 43.6151 24.9095 43.6151Z" fill="#1E1E20"/>
</svg>
