<svg width="277" height="72" viewBox="0 0 277 72" fill="none" xmlns="http://www.w3.org/2000/svg">
<path d="M22.608 43H10.464L15.456 19.336H3.936L5.664 11.272H40.8L39.072 19.336H27.6L22.608 43ZM49.3238 43H37.2278L43.9478 11.272H56.0438L49.3238 43ZM91.9313 43H79.8833L81.7073 34.36C81.7552 34.12 81.8033 33.88 81.8033 33.688C81.8033 32.68 81.1313 32.2 79.1633 32.2H68.2673L66.0113 43H53.9153L60.6353 11.272H87.4673C94.7633 11.272 97.2113 12.52 97.2113 15.976C97.2113 16.84 97.0673 17.752 96.8273 18.856L95.8193 23.608C95.2433 26.392 93.5153 27.928 91.4033 28.504C92.8913 28.888 94.1393 30.04 94.1393 31.912C94.1393 32.296 94.0913 32.68 93.9953 33.064L91.9313 43ZM84.1553 22.744L84.4913 21.208C84.5393 20.968 84.5873 20.728 84.5873 20.536C84.5873 19.768 84.1073 19.336 82.5713 19.336H71.0033L69.8513 24.904H81.4193C83.5312 24.904 83.8193 24.184 84.1553 22.744ZM132.587 43H95.9153L102.635 11.272H139.307L137.579 19.336H113.099L112.283 23.32H125.195L123.563 30.904H110.651L109.787 34.936H134.267L132.587 43ZM176.927 31.576L176.111 35.416C174.767 41.704 171.311 43 162.335 43H136.415L143.135 11.272H169.055C176.639 11.272 179.711 12.28 179.711 16.216C179.711 16.984 179.567 17.848 179.375 18.856L178.607 22.552C178.079 25.096 176.159 26.392 174.287 26.92C175.775 27.304 177.071 28.312 177.071 30.328C177.071 30.712 177.023 31.144 176.927 31.576ZM152.735 23.464H164.639C166.127 23.464 166.847 23.032 167.135 21.736L167.231 21.16C167.279 20.92 167.279 20.728 167.279 20.536C167.279 19.72 166.703 19.336 165.503 19.336H153.599L152.735 23.464ZM163.055 30.808H151.151L150.287 34.936H162.191C163.679 34.936 164.399 34.504 164.687 33.208L164.783 32.632C164.831 32.392 164.831 32.2 164.831 32.008C164.831 31.192 164.255 30.808 163.055 30.808ZM206.679 43H190.599C182.919 43 179.751 42.088 179.751 38.008C179.751 37.288 179.895 36.424 180.087 35.416L183.591 18.856C184.935 12.52 188.343 11.272 197.319 11.272H213.399C221.079 11.272 224.247 12.184 224.247 16.264C224.247 17.032 224.151 17.896 223.959 18.856L220.455 35.416C219.111 41.752 215.751 43 206.679 43ZM208.983 32.776L211.383 21.496C211.431 21.256 211.479 21.016 211.479 20.824C211.479 19.672 210.615 19.336 208.263 19.336H199.143C196.455 19.336 195.543 19.768 195.159 21.496L192.759 32.776C192.711 33.064 192.663 33.304 192.663 33.544C192.663 34.552 193.431 34.936 195.831 34.936H204.951C207.735 34.936 208.647 34.408 208.983 32.776ZM267.615 11.272L251.631 26.392L261.519 43H247.167L242.511 35.368L235.023 43H219.855L236.991 27.4L227.439 11.272H241.791L246.159 18.664L253.743 11.272H267.615Z" fill="#006BFF"/>
<path d="M31.608 57H19.464L24.456 33.336H12.936L14.664 25.272H49.8L48.072 33.336H36.6L31.608 57ZM58.3238 57H46.2278L52.9478 25.272H65.0438L58.3238 57ZM100.931 57H88.8833L90.7073 48.36C90.7552 48.12 90.8033 47.88 90.8033 47.688C90.8033 46.68 90.1313 46.2 88.1633 46.2H77.2673L75.0113 57H62.9153L69.6353 25.272H96.4673C103.763 25.272 106.211 26.52 106.211 29.976C106.211 30.84 106.067 31.752 105.827 32.856L104.819 37.608C104.243 40.392 102.515 41.928 100.403 42.504C101.891 42.888 103.139 44.04 103.139 45.912C103.139 46.296 103.091 46.68 102.995 47.064L100.931 57ZM93.1553 36.744L93.4913 35.208C93.5393 34.968 93.5873 34.728 93.5873 34.536C93.5873 33.768 93.1073 33.336 91.5713 33.336H80.0033L78.8513 38.904H90.4193C92.5312 38.904 92.8193 38.184 93.1553 36.744ZM141.587 57H104.915L111.635 25.272H148.307L146.579 33.336H122.099L121.283 37.32H134.195L132.563 44.904H119.651L118.787 48.936H143.267L141.587 57ZM185.927 45.576L185.111 49.416C183.767 55.704 180.311 57 171.335 57H145.415L152.135 25.272H178.055C185.639 25.272 188.711 26.28 188.711 30.216C188.711 30.984 188.567 31.848 188.375 32.856L187.607 36.552C187.079 39.096 185.159 40.392 183.287 40.92C184.775 41.304 186.071 42.312 186.071 44.328C186.071 44.712 186.023 45.144 185.927 45.576ZM161.735 37.464H173.639C175.127 37.464 175.847 37.032 176.135 35.736L176.231 35.16C176.279 34.92 176.279 34.728 176.279 34.536C176.279 33.72 175.703 33.336 174.503 33.336H162.599L161.735 37.464ZM172.055 44.808H160.151L159.287 48.936H171.191C172.679 48.936 173.399 48.504 173.687 47.208L173.783 46.632C173.831 46.392 173.831 46.2 173.831 46.008C173.831 45.192 173.255 44.808 172.055 44.808ZM215.679 57H199.599C191.919 57 188.751 56.088 188.751 52.008C188.751 51.288 188.895 50.424 189.087 49.416L192.591 32.856C193.935 26.52 197.343 25.272 206.319 25.272H222.399C230.079 25.272 233.247 26.184 233.247 30.264C233.247 31.032 233.151 31.896 232.959 32.856L229.455 49.416C228.111 55.752 224.751 57 215.679 57ZM217.983 46.776L220.383 35.496C220.431 35.256 220.479 35.016 220.479 34.824C220.479 33.672 219.615 33.336 217.263 33.336H208.143C205.455 33.336 204.543 33.768 204.159 35.496L201.759 46.776C201.711 47.064 201.663 47.304 201.663 47.544C201.663 48.552 202.431 48.936 204.831 48.936H213.951C216.735 48.936 217.647 48.408 217.983 46.776ZM276.615 25.272L260.631 40.392L270.519 57H256.167L251.511 49.368L244.023 57H228.855L245.991 41.4L236.439 25.272H250.791L255.159 32.664L262.743 25.272H276.615Z" fill="white"/>
</svg>
