<svg width="71" height="71" viewBox="0 0 71 71" fill="none" xmlns="http://www.w3.org/2000/svg">
<path fill-rule="evenodd" clip-rule="evenodd" d="M12.9091 0C9.48539 0 6.20191 1.36006 3.78099 3.78099C1.36006 6.20191 0 9.48539 0 12.9091V58.0909C0 61.5146 1.36006 64.7981 3.78099 67.219C6.20191 69.6399 9.48539 71 12.9091 71H58.0909C61.5146 71 64.7981 69.6399 67.219 67.219C69.6399 64.7981 71 61.5146 71 58.0909V12.9091C71 9.48539 69.6399 6.20191 67.219 3.78099C64.7981 1.36006 61.5146 0 58.0909 0H12.9091ZM61.3182 35.5C61.3182 42.3474 58.5981 48.9144 53.7562 53.7562C48.9144 58.5981 42.3474 61.3182 35.5 61.3182C28.6526 61.3182 22.0856 58.5981 17.2438 53.7562C12.4019 48.9144 9.68182 42.3474 9.68182 35.5C9.68182 28.6526 12.4019 22.0856 17.2438 17.2438C22.0856 12.4019 28.6526 9.68182 35.5 9.68182C42.3474 9.68182 48.9144 12.4019 53.7562 17.2438C58.5981 22.0856 61.3182 28.6526 61.3182 35.5ZM17.8533 34.7384C17.8533 34.4995 18.0114 34.2704 18.2341 34.1897L47.1601 23.1621C47.2606 23.127 47.3685 23.1187 47.4732 23.1379C47.5779 23.1572 47.6757 23.2033 47.7572 23.2719C47.9185 23.4106 47.9895 23.6398 47.9411 23.8495L42.1708 48.1122C42.1491 48.2068 42.1041 48.2945 42.0398 48.3672C41.9755 48.4399 41.8941 48.4954 41.8029 48.5285C41.7125 48.5628 41.6149 48.5739 41.5191 48.5609C41.4233 48.548 41.3323 48.5113 41.2542 48.4543L30.3622 39.6825L40.0827 30.9625C40.145 30.9051 40.1847 30.8275 40.1948 30.7434C40.2049 30.6594 40.1846 30.5746 40.1376 30.5042C40.0891 30.4343 40.0172 30.3841 39.9349 30.3628C39.8525 30.3415 39.7653 30.3504 39.689 30.388L25.247 37.8462L18.2341 35.287C18.1244 35.2421 18.03 35.1664 17.9624 35.0691C17.8948 34.9717 17.8569 34.8568 17.8533 34.7384Z" fill="white"/>
</svg>
