<svg width="71" height="71" viewBox="0 0 71 71" fill="none" xmlns="http://www.w3.org/2000/svg">
<path d="M70.968 16.1427C70.935 14.6197 70.8129 13.1 70.6024 11.5913C70.3478 10.2496 69.9144 8.94808 69.3137 7.72164C68.0002 5.12709 65.8934 3.01908 63.2997 1.70409C62.0809 1.10667 60.7879 0.674476 59.4548 0.418921C57.9345 0.204608 56.4029 0.0801355 54.868 0.0461523C54.2183 0.0213011 53.3769 0.0106506 52.9864 0.0106506L18.0243 0C17.6337 0 16.7923 0.0106505 16.1427 0.0355017C14.6197 0.06852 13.1 0.190618 11.5913 0.40117C10.2496 0.655717 8.94808 1.08916 7.72164 1.68988C5.12709 3.00335 3.01908 5.11011 1.70409 7.70389C1.10667 8.92267 0.674476 10.2157 0.418921 11.5487C0.20342 13.0689 0.0777623 14.6005 0.0426024 16.1356C0.0213014 16.7852 0.00710069 17.6266 0.00710069 18.0171L0 52.9793C0 53.3698 0.0106505 54.2112 0.0355017 54.8609C0.06852 56.3838 0.190618 57.9035 0.40117 59.4122C0.655717 60.754 1.08916 62.0555 1.68988 63.2819C3.00335 65.8765 5.11011 67.9845 7.70389 69.2995C8.92267 69.8969 10.2157 70.3291 11.5487 70.5846C13.069 70.7989 14.6006 70.9234 16.1356 70.9574C16.7852 70.9822 17.6266 70.9929 18.0171 70.9929L52.9793 71C53.3698 71 54.2112 70.9893 54.8609 70.9645C56.3838 70.9315 57.9035 70.8094 59.4122 70.5988C60.754 70.3443 62.0555 69.9108 63.2819 69.3101C65.8778 67.9973 67.9871 65.8904 69.303 63.2961C69.9004 62.0773 70.3326 60.7843 70.5882 59.4513C70.8037 57.9311 70.9293 56.3995 70.9645 54.8644C70.9858 54.2148 71 53.3734 71 52.9828L71.0035 18.0243C71.0035 17.6337 70.9929 16.7923 70.968 16.1427ZM36.2722 60.2004H36.2615C32.0351 60.2035 27.8758 59.1438 24.1661 57.1188L10.7464 60.637L14.3392 47.5262C11.5574 42.6991 10.4459 37.0891 11.177 31.566C11.9081 26.0429 14.4409 20.9153 18.3827 16.9781C22.3246 13.041 27.4552 10.5143 32.9792 9.78978C38.5031 9.06527 44.1118 10.1834 48.9356 12.9709C53.7594 15.7584 57.5289 20.0594 59.6595 25.2072C61.7901 30.355 62.1629 36.0619 60.7201 41.4431C59.2772 46.8243 56.0994 51.5791 51.6792 54.9704C47.259 58.3618 41.8434 60.2001 36.2722 60.2004Z" fill="white"/>
<path d="M36.2828 13.8512C32.5235 13.8501 28.8325 14.8562 25.5937 16.7648C22.3549 18.6734 19.6865 21.4149 17.8662 24.7041C16.0458 27.9933 15.1399 31.7101 15.2426 35.468C15.3453 39.226 16.4529 42.8878 18.4502 46.0726L18.9508 46.8679L16.8243 54.6285L24.7873 52.541L25.5542 52.9955C28.7945 54.9182 32.4936 55.9313 36.2615 55.9279H36.2721C41.8523 55.9289 47.2043 53.713 51.1508 49.7679C55.0972 45.8228 57.3149 40.4715 57.3158 34.8913C57.3168 29.3111 55.1009 23.9591 51.1558 20.0127C47.2107 16.0662 41.8594 13.8486 36.2792 13.8477L36.2828 13.8512ZM48.6516 43.9212C48.1869 44.6903 47.5678 45.3546 46.8333 45.8722C46.0987 46.3897 45.2649 46.7493 44.3843 46.9282C43.0553 47.1565 41.6913 47.0714 40.401 46.6797C39.1766 46.3001 37.9737 45.8545 36.7976 45.3448C32.4299 43.1529 28.7071 39.8632 25.9944 35.7984C24.514 33.917 23.6157 31.6441 23.4098 29.259C23.3934 28.2747 23.5819 27.2977 23.9633 26.3901C24.3447 25.4825 24.9106 24.6641 25.6252 23.987C25.8372 23.7467 26.0962 23.5525 26.3863 23.4163C26.6763 23.2802 26.9912 23.2049 27.3115 23.1953C27.7304 23.1953 28.1529 23.1953 28.5221 23.2166C28.9126 23.2343 29.4309 23.0675 29.9422 24.3029C30.4747 25.5668 31.7386 28.6803 31.8948 28.9963C31.9944 29.1621 32.0515 29.3501 32.0607 29.5434C32.07 29.7367 32.0313 29.9293 31.948 30.1039C31.7895 30.4841 31.5766 30.8393 31.3161 31.1583C30.9966 31.5275 30.6522 31.982 30.3682 32.266C30.0487 32.5819 29.7221 32.9228 30.0877 33.5547C31.0389 35.1799 32.2244 36.656 33.606 37.9356C35.108 39.2674 36.8292 40.3292 38.6934 41.074C39.3253 41.3935 39.6945 41.3367 40.0637 40.9142C40.4329 40.4917 41.6436 39.0681 42.066 38.4362C42.4885 37.8043 42.9074 37.9108 43.4861 38.1202C44.0648 38.3297 47.1783 39.8598 47.8102 40.1793C48.4421 40.4988 48.8646 40.6515 49.0208 40.9142C49.1915 41.9311 49.0632 42.9758 48.6516 43.9212Z" fill="white"/>
</svg>
